<svg width="31" height="31" viewBox="0 0 31 31" fill="none" xmlns="http://www.w3.org/2000/svg">
<rect x="0.0700073" y="0.429199" width="30" height="30" rx="3" fill="#E5E5E5"/>
<path d="M21.8133 13.9565H21.784C20.4364 13.9565 19.2059 13.5464 18.2098 12.814V18.0581C18.2098 20.6948 16.0711 22.8042 13.4344 22.8042C10.7977 22.8042 8.68832 20.6948 8.68832 18.0581C8.68832 15.4214 10.7977 13.2827 13.4344 13.2827C13.6688 13.2827 13.8739 13.312 14.1082 13.3413V15.978C13.8739 15.8901 13.6688 15.8608 13.4344 15.8608C12.2332 15.8608 11.2372 16.8569 11.2372 18.0581C11.2372 19.2593 12.2332 20.2554 13.4344 20.2554C14.6356 20.2554 15.6317 19.2593 15.6317 18.0581V7.8042H18.2098C18.2098 7.8335 18.2098 7.8335 18.2098 7.86279C18.2098 8.06787 18.2098 8.27295 18.2684 8.47803C18.4442 9.44482 19.0301 10.2944 19.8504 10.8218C20.4071 11.2026 21.0809 11.4077 21.784 11.4077C21.784 11.4077 21.784 11.4077 21.8133 11.4077V13.9565Z" fill="#161616"/>
</svg>
