<svg width="31" height="31" viewBox="0 0 31 31" fill="none" xmlns="http://www.w3.org/2000/svg">
<rect x="0.0700073" y="0.429199" width="30" height="30" rx="3" fill="#E5E5E5"/>
<path d="M15.2496 8.03857C19.2633 8.03857 22.5152 11.2905 22.5152 15.3042C22.5152 19.3179 19.2633 22.5698 15.2496 22.5698C11.2359 22.5698 7.98396 19.3179 7.98396 15.3042C7.98396 11.2905 11.2359 8.03857 15.2496 8.03857ZM18.7945 13.019C18.9117 12.5503 18.6187 12.3452 18.2965 12.4624L11.2945 15.1577C10.8258 15.3335 10.8258 15.6265 11.2066 15.7437L12.9937 16.3003L17.1539 13.6636C17.359 13.5464 17.5347 13.6343 17.3883 13.7515L14.0191 16.7983L13.9019 18.644C14.0777 18.644 14.1656 18.5562 14.2535 18.4683L15.1324 17.6187L16.9488 18.9663C17.3004 19.1421 17.5347 19.0542 17.6226 18.644L18.7945 13.019Z" fill="#161616"/>
</svg>
