<svg width="31" height="31" viewBox="0 0 31 31" fill="none" xmlns="http://www.w3.org/2000/svg">
<rect x="0.0700073" y="0.429199" width="30" height="30" rx="3" fill="#161616"/>
<path d="M15.2508 11.9351C17.0965 11.9351 18.62 13.4585 18.62 15.3042C18.62 17.1792 17.0965 18.6733 15.2508 18.6733C13.3758 18.6733 11.8817 17.1792 11.8817 15.3042C11.8817 13.4585 13.3758 11.9351 15.2508 11.9351ZM15.2508 17.5015C16.452 17.5015 17.4188 16.5347 17.4188 15.3042C17.4188 14.103 16.452 13.1362 15.2508 13.1362C14.0204 13.1362 13.0536 14.103 13.0536 15.3042C13.0536 16.5347 14.0497 17.5015 15.2508 17.5015ZM19.5282 11.8179C19.5282 12.2573 19.1766 12.6089 18.7372 12.6089C18.2977 12.6089 17.9461 12.2573 17.9461 11.8179C17.9461 11.3784 18.2977 11.0269 18.7372 11.0269C19.1766 11.0269 19.5282 11.3784 19.5282 11.8179ZM21.7547 12.6089C21.8133 13.6929 21.8133 16.9448 21.7547 18.0288C21.6961 19.0835 21.4618 19.9917 20.7 20.7827C19.9383 21.5444 19.0008 21.7788 17.9461 21.8374C16.8622 21.896 13.6102 21.896 12.5262 21.8374C11.4715 21.7788 10.5633 21.5444 9.77231 20.7827C9.01059 19.9917 8.77621 19.0835 8.71762 18.0288C8.65903 16.9448 8.65903 13.6929 8.71762 12.6089C8.77621 11.5542 9.01059 10.6167 9.77231 9.85498C10.5633 9.09326 11.4715 8.85889 12.5262 8.80029C13.6102 8.7417 16.8622 8.7417 17.9461 8.80029C19.0008 8.85889 19.9383 9.09326 20.7 9.85498C21.4618 10.6167 21.6961 11.5542 21.7547 12.6089ZM20.3485 19.1714C20.7 18.3218 20.6122 16.271 20.6122 15.3042C20.6122 14.3667 20.7 12.3159 20.3485 11.437C20.1141 10.8804 19.6747 10.4116 19.118 10.2065C18.2391 9.85498 16.1883 9.94287 15.2508 9.94287C14.284 9.94287 12.2332 9.85498 11.3836 10.2065C10.7977 10.4409 10.3582 10.8804 10.1239 11.437C9.77231 12.3159 9.8602 14.3667 9.8602 15.3042C9.8602 16.271 9.77231 18.3218 10.1239 19.1714C10.3582 19.7573 10.7977 20.1968 11.3836 20.4312C12.2332 20.7827 14.284 20.6948 15.2508 20.6948C16.1883 20.6948 18.2391 20.7827 19.118 20.4312C19.6747 20.1968 20.1434 19.7573 20.3485 19.1714Z" fill="white"/>
</svg>
