<svg width="31" height="31" viewBox="0 0 31 31" fill="none" xmlns="http://www.w3.org/2000/svg">
<rect x="0.0700073" y="0.429199" width="30" height="30" rx="3" fill="#161616"/>
<path d="M22.9157 11.4663C23.2673 12.6968 23.2673 15.3335 23.2673 15.3335C23.2673 15.3335 23.2673 17.9409 22.9157 19.2007C22.74 19.9038 22.1833 20.4312 21.5095 20.6069C20.2497 20.9292 15.2693 20.9292 15.2693 20.9292C15.2693 20.9292 10.2595 20.9292 8.99972 20.6069C8.3259 20.4312 7.76925 19.9038 7.59347 19.2007C7.24191 17.9409 7.24191 15.3335 7.24191 15.3335C7.24191 15.3335 7.24191 12.6968 7.59347 11.4663C7.76925 10.7632 8.3259 10.2065 8.99972 10.0308C10.2595 9.6792 15.2693 9.6792 15.2693 9.6792C15.2693 9.6792 20.2497 9.6792 21.5095 10.0308C22.1833 10.2065 22.74 10.7632 22.9157 11.4663ZM13.6286 17.7065L17.7888 15.3335L13.6286 12.9604V17.7065Z" fill="white"/>
</svg>
