<svg width="49" height="49" viewBox="0 0 49 49" fill="none" xmlns="http://www.w3.org/2000/svg">
<g clip-path="url(#clip0_2_76)">
<path d="M35.9468 0.85498H13.4468C11.103 0.85498 9.13428 2.72998 9.13428 5.07373V44.6362C9.13428 46.98 11.103 48.855 13.4468 48.855H35.9468C38.2905 48.855 40.2593 46.98 40.2593 44.6362V5.07373C40.2593 2.72998 38.2905 0.85498 35.9468 0.85498ZM13.4468 3.66748H35.9468C36.7905 3.66748 37.4468 4.32373 37.4468 5.07373V9.29248H11.9468V5.07373C11.9468 4.32373 12.603 3.66748 13.4468 3.66748ZM37.4468 12.105V34.6987H11.9468V12.105H37.4468ZM35.9468 46.0425H13.4468C12.603 46.0425 11.9468 45.3862 11.9468 44.6362V37.605H37.4468V44.6362C37.4468 45.3862 36.7905 46.0425 35.9468 46.0425ZM26.103 41.8237C26.103 42.5737 25.4468 43.23 24.6968 43.23C23.9468 43.23 23.2905 42.5737 23.2905 41.8237C23.2905 40.98 23.9468 40.4175 24.6968 40.4175C25.4468 40.4175 26.103 40.98 26.103 41.8237Z" fill="#F50000"/>
</g>
<defs>
<clipPath id="clip0_2_76">
<rect width="48" height="48" fill="white" transform="matrix(1 0 0 -1 0.696777 48.855)"/>
</clipPath>
</defs>
</svg>
